<?xml version="1.0" encoding="UTF-8" standalone="no"?>
<svg
   xmlns:dc="http://purl.org/dc/elements/1.1/"
   xmlns:cc="http://creativecommons.org/ns#"
   xmlns:rdf="http://www.w3.org/1999/02/22-rdf-syntax-ns#"
   xmlns:svg="http://www.w3.org/2000/svg"
   xmlns="http://www.w3.org/2000/svg"
   viewBox="0 0 258.16251 25.025"
   height="25.025"
   width="258.16251"
   xml:space="preserve"
   version="1.1"
   id="svg2"><metadata
     id="metadata8"><rdf:RDF><cc:Work
         rdf:about=""><dc:format>image/svg+xml</dc:format><dc:type
           rdf:resource="http://purl.org/dc/dcmitype/StillImage" /></cc:Work></rdf:RDF></metadata><defs
     id="defs6" /><g
     transform="matrix(1.25,0,0,-1.25,0,25.025)"
     id="g10"><g
       transform="scale(0.1,0.1)"
       id="g12"><path
         id="path14"
         style="fill:#231f20;fill-opacity:1;fill-rule:nonzero;stroke:none"
         d="m 388.48,143.727 c 0,-10.504 -0.199,-11.704 -5.496,-12.5 l -2.004,-0.305 c -0.597,-0.695 -0.398,-2.219 0.204,-2.52 4.101,0.203 7.5,0.325 11.589,0.325 3.903,0 7.301,-0.122 12.2,-0.325 0.597,0.301 0.8,2.121 0.199,2.52 l -2.699,0.305 c -5.598,0.593 -5.797,1.996 -5.797,12.5 l 0,12.894 c 0,3.5 0.199,4.801 1.699,4.801 2.398,0 4,-1.996 9.695,-8.399 l 8.016,-9 c 3.797,-4.3 6.387,-7 8.289,-9.398 0.699,-0.898 1.398,-1.699 1.398,-2.301 0,-0.504 -1.003,-0.801 -2.398,-1 l -2.301,-0.402 c -0.59,-0.598 -0.301,-2.317 0.403,-2.52 4.597,0.203 8.093,0.325 12.195,0.325 4.703,0 8.598,-0.122 11.203,-0.325 0.695,0.301 0.898,2.024 0.199,2.52 l -2.699,0.305 c -3.398,0.394 -5.602,1.699 -8,4.097 -7.801,8.203 -15.492,17.199 -25,28.09 -1.305,1.602 -1.902,2.402 -1.902,3.102 0,0.8 0.902,1.699 2.297,3.097 l 9.015,8.504 c 5.59,5.297 11.188,10.008 13.988,11.606 2.797,1.601 6.7,2.601 9.297,2.8 0.602,0.594 0.504,1.989 -0.195,2.493 -3.004,-0.2 -6.402,-0.293 -9.902,-0.293 -3.5,0 -7.5,0.093 -11,0.293 -0.793,-0.504 -0.887,-1.801 -0.2,-2.493 l 2.7,-0.597 c 1.297,-0.305 1.699,-0.602 1.699,-1.004 0,-0.399 -0.199,-0.899 -0.699,-1.602 -1,-1.394 -5.887,-6.508 -7.789,-8.304 l -10.809,-10.704 c -1.105,-1 -3.703,-3.597 -5.102,-4.8 -0.699,-0.496 -1.902,-1.098 -2.8,-1.098 -1.098,0 -1.297,1.898 -1.297,3.801 l 0,11.496 c 0,10.516 0.199,12.012 5.996,12.613 l 1.898,0.199 c 0.602,0.403 0.403,2.188 -0.195,2.493 -4.301,-0.2 -7.699,-0.293 -11.602,-0.293 -4.492,0 -7.687,0.093 -12.593,0.293 -0.594,-0.305 -0.793,-2.09 -0.2,-2.493 l 2.5,-0.199 c 5.801,-0.504 6,-2.097 6,-12.613 l 0,-35.984 z m 80.622,25.785 c -11.797,0 -21.29,-8.989 -21.29,-21.598 0,-12.5 8.989,-20.59 20.489,-20.59 12.511,0 21.105,8.988 21.105,21.488 0,12.313 -9.094,20.7 -20.304,20.7 m 11.71,-22.301 c 0,-7.699 -2.703,-16.899 -11.511,-16.899 -8.797,0 -12.899,9.801 -12.899,18.903 0,11.012 4.903,17.308 11.5,17.308 9.512,0 12.91,-10.808 12.91,-19.312 m 20.872,-7.289 c 0,-7.195 -0.102,-8.199 -3.801,-8.695 l -2.102,-0.305 c -0.695,-0.496 -0.496,-2.219 0.199,-2.52 2.805,0.203 5.801,0.325 9.391,0.325 3.5,0 6.402,-0.122 9.102,-0.325 0.699,0.301 0.898,2.024 0.199,2.52 l -1.801,0.305 c -3.598,0.593 -3.797,1.5 -3.797,8.695 l 0,15.305 c 0,2.898 0.199,4.296 1.496,6 1.403,1.898 4.703,3.496 8.504,3.496 6.809,0 9.406,-4.2 9.406,-9.899 l 0,-14.902 c 0,-7.195 -0.097,-8.102 -3.796,-8.695 l -1.911,-0.305 c -0.703,-0.496 -0.503,-2.219 0.2,-2.52 2.711,0.203 5.711,0.325 9.297,0.325 3.503,0 6.402,-0.122 9.406,-0.325 0.699,0.301 0.898,2.024 0.199,2.52 l -2.203,0.305 c -3.598,0.496 -3.797,1.5 -3.797,8.695 l 0,17.203 c 0,6.699 -3.402,12.387 -11.691,12.387 -5.11,0 -9.809,-2.5 -14.012,-5.086 -0.699,0 -1.098,0.496 -1.098,1.097 0,0.887 0,2.391 0.199,4.692 -0.199,0.5 -0.699,0.699 -1.097,0.699 -2.004,-1.5 -7.692,-4.102 -9.992,-4.898 -0.504,-0.293 -0.504,-1.391 -0.102,-1.793 l 0.902,-0.598 c 2.7,-1.805 2.7,-2.301 2.7,-6.203 l 0,-17.5 z m 53.992,0 c 0,-7.195 -0.106,-8.199 -3.801,-8.695 l -2.105,-0.305 c -0.696,-0.496 -0.497,-2.219 0.203,-2.52 2.8,0.203 5.8,0.325 9.386,0.325 3.504,0 6.395,-0.122 9.395,-0.325 0.711,0.301 0.898,2.024 0.211,2.52 l -2.113,0.305 c -3.598,0.496 -3.79,1.5 -3.79,8.695 l 0,18.004 c 0,4.097 0.192,8.894 0.391,12.398 -0.09,0.399 -0.488,0.598 -0.992,0.598 -2.301,-1.496 -7.988,-4.102 -10.289,-4.895 -0.496,-0.304 -0.496,-1.402 -0.102,-1.804 l 0.903,-0.598 c 2.703,-1.805 2.703,-2.301 2.703,-6.203 l 0,-17.5 z m 3.289,51.191 c -3.004,0 -5.391,-2.097 -5.391,-5.398 0,-2.692 1.996,-4.992 5.09,-4.992 2.801,0 5.301,1.601 5.301,5.191 0,2.797 -2,5.199 -5,5.199 m 23.801,-51.191 c 0,-7.195 -0.106,-8.199 -3.801,-8.695 l -2.106,-0.305 c -0.695,-0.496 -0.496,-2.219 0.203,-2.52 2.801,0.203 5.801,0.325 9.395,0.325 3.484,0 6.395,-0.122 9.094,-0.325 0.703,0.301 0.906,2.024 0.203,2.52 l -1.797,0.305 c -3.613,0.593 -3.816,1.5 -3.816,8.695 l 0,15.305 c 0,2.898 0.203,4.296 1.5,6 1.41,1.898 4.711,3.496 8.511,3.496 6.801,0 9.41,-4.2 9.41,-9.899 l 0,-14.902 c 0,-7.195 -0.097,-8.102 -3.808,-8.695 l -1.902,-0.305 c -0.696,-0.496 -0.497,-2.219 0.203,-2.52 2.699,0.203 5.707,0.325 9.3,0.325 3.485,0 6.387,-0.122 9.391,-0.325 0.695,0.301 0.899,2.024 0.199,2.52 l -2.203,0.305 c -3.597,0.496 -3.797,1.5 -3.797,8.695 l 0,17.203 c 0,6.699 -3.39,12.387 -11.691,12.387 -5.102,0 -9.801,-2.5 -14.008,-5.086 -0.703,0 -1.105,0.496 -1.105,1.097 0,0.887 0,2.391 0.203,4.692 -0.203,0.5 -0.699,0.699 -1.09,0.699 -2,-1.5 -7.692,-4.102 -9.992,-4.898 -0.496,-0.293 -0.496,-1.391 -0.094,-1.793 l 0.894,-0.598 c 2.704,-1.805 2.704,-2.301 2.704,-6.203 l 0,-17.5 z m 53.57,0 c 0,-7.195 -0.106,-8.199 -3.801,-8.695 l -2.203,-0.305 c -0.801,-0.496 -0.602,-2.219 0.102,-2.52 3,0.203 5.996,0.325 9.589,0.325 3.489,0 6.387,-0.122 9.688,-0.325 0.707,0.301 0.898,2.024 0.203,2.52 l -2.398,0.305 c -3.606,0.496 -3.805,1.5 -3.805,8.695 l 0,5.504 c 0,3.101 0.101,3.398 1.898,3.398 1.106,0 2.203,-0.402 3.102,-1.402 l 10.703,-12.399 c 1.301,-1.496 1.699,-2.199 1.699,-2.8 0,-0.602 -1,-0.801 -2.5,-0.996 l -1.801,-0.305 c -0.699,-0.399 -0.601,-2.11 0.2,-2.52 2.902,0.203 6.402,0.325 10.402,0.325 3.195,0 6.602,-0.122 9.5,-0.325 0.801,0.301 0.898,2.024 0.199,2.52 l -1.398,0.203 c -1.805,0.297 -3.801,0.898 -5.203,2.199 -2,1.903 -5.496,5.797 -9.399,10.203 -3.398,3.797 -5,5.696 -6.699,7.989 -0.602,0.8 -0.504,1.296 0.699,2.394 1.813,1.707 5.211,5.305 9.11,8.406 2.597,2.11 4.297,3.11 6.3,3.508 l 3.188,0.598 c 0.601,0.492 0.504,2.191 -0.199,2.488 -5.586,-0.586 -11.489,-0.785 -15.891,-0.785 l -2.289,0 c -0.898,-0.301 -0.898,-2.211 0,-2.52 l 2.395,-0.3 c 1.699,-0.203 2.195,-0.5 2.195,-1.004 0,-0.496 -0.699,-1.594 -3.5,-4.598 l -4.098,-4.398 c -2.699,-2.789 -4.597,-3.895 -6.801,-3.895 -1.711,0 -1.812,0.203 -1.812,1.504 l 0,34.297 c 0,4.402 0.199,9.402 0.305,12.402 -0.204,0.403 -0.602,0.602 -1.004,0.602 -3.586,-1.899 -8.282,-3.403 -10.782,-4.199 -0.496,-0.301 -0.496,-1.704 0,-2 l 1.004,-0.602 c 2.996,-1.801 3.102,-2.398 3.102,-8.301 l 0,-45.191 z m 59.578,47.289 c 0,4.402 0.199,9.402 0.297,12.402 -0.199,0.403 -0.602,0.602 -0.996,0.602 -3.594,-1.899 -8.281,-3.403 -10.781,-4.199 -0.504,-0.301 -0.504,-1.704 0,-2 l 1,-0.602 c 3,-1.801 3.097,-2.398 3.097,-8.301 l 0,-45.191 c 0,-7.195 -0.097,-8.199 -3.801,-8.695 l -2.296,-0.305 c -0.7,-0.496 -0.5,-2.219 0.199,-2.52 3.004,0.203 6,0.325 9.59,0.325 3.492,0 6.39,-0.122 9.691,-0.325 0.699,0.301 0.898,2.024 0.199,2.52 l -2.402,0.305 c -3.598,0.496 -3.797,1.5 -3.797,8.695 l 0,47.289 z m 19.801,-47.289 c 0,-7.195 -0.106,-8.199 -3.801,-8.695 l -2.098,-0.305 c -0.703,-0.496 -0.504,-2.219 0.2,-2.52 2.796,0.203 5.796,0.325 9.398,0.325 3.488,0 6.387,-0.122 9.391,-0.325 0.699,0.301 0.898,2.024 0.199,2.52 l -2.098,0.305 c -3.605,0.496 -3.804,1.5 -3.804,8.695 l 0,18.004 c 0,4.097 0.199,8.894 0.402,12.398 -0.102,0.399 -0.5,0.598 -1,0.598 -2.289,-1.496 -7.992,-4.102 -10.293,-4.895 -0.496,-0.304 -0.496,-1.402 -0.098,-1.804 l 0.899,-0.598 c 2.703,-1.805 2.703,-2.301 2.703,-6.203 l 0,-17.5 z m 3.301,51.191 c -3.004,0 -5.403,-2.097 -5.403,-5.398 0,-2.692 1.996,-4.992 5.098,-4.992 2.805,0 5.293,1.601 5.293,5.191 0,2.797 -2,5.199 -4.988,5.199 m 20.847,-58.89 c 0,-12.2 -1.801,-19.399 -5.398,-23.598 -1.403,-1.602 -3.301,-3.199 -5.899,-4.504 -0.402,-0.996 0.2,-2.098 1.395,-2.301 6.898,4.305 12.203,9.102 15.191,16.305 1.403,3.398 2.102,8.398 2.102,15.602 l 0,24.199 c 0,4.097 0.199,8.894 0.398,12.398 -0.097,0.399 -0.5,0.598 -1,0.598 -2.293,-1.496 -7.988,-4.102 -10.289,-4.895 -0.5,-0.304 -0.5,-1.402 -0.097,-1.804 l 0.898,-0.598 c 2.699,-1.805 2.699,-2.301 2.699,-6.203 l 0,-25.199 z m 3.301,58.89 c -3.004,0 -5.398,-2 -5.398,-5.297 0,-2.793 1.996,-5.093 5.097,-5.093 2.793,0 5.293,1.699 5.293,5.191 0,2.797 -2.004,5.199 -4.992,5.199 m 19.973,-51.191 c 0,-7.195 -0.106,-8.199 -3.805,-8.695 l -2.199,-0.305 c -0.797,-0.496 -0.598,-2.219 0.097,-2.52 3.004,0.203 6.004,0.325 9.602,0.325 3.492,0 6.391,-0.122 9.691,-0.325 0.7,0.301 0.899,2.024 0.2,2.52 l -2.403,0.305 c -3.597,0.496 -3.797,1.5 -3.797,8.695 l 0,5.504 c 0,3.101 0.102,3.398 1.899,3.398 1.098,0 2.203,-0.402 3.101,-1.402 l 10.7,-12.399 c 1.3,-1.496 1.703,-2.199 1.703,-2.8 0,-0.602 -1,-0.801 -2.5,-0.996 l -1.801,-0.305 c -0.699,-0.399 -0.602,-2.11 0.199,-2.52 2.899,0.203 6.403,0.325 10.399,0.325 3.199,0 6.601,-0.122 9.5,-0.325 0.8,0.301 0.902,2.024 0.199,2.52 l -1.399,0.203 c -1.8,0.297 -3.8,0.898 -5.199,2.199 -2,1.903 -5.504,5.797 -9.398,10.203 -3.403,3.797 -5,5.696 -6.703,7.989 -0.598,0.8 -0.5,1.296 0.703,2.394 1.804,1.707 5.207,5.305 9.105,8.406 2.594,2.11 4.293,3.11 6.293,3.508 l 3.199,0.598 c 0.602,0.492 0.497,2.191 -0.199,2.488 -5.601,-0.586 -11.488,-0.785 -15.89,-0.785 l -2.301,0 c -0.903,-0.301 -0.903,-2.211 0,-2.52 l 2.398,-0.3 c 1.699,-0.203 2.203,-0.5 2.203,-1.004 0,-0.496 -0.703,-1.594 -3.5,-4.598 l -4.101,-4.398 c -2.703,-2.789 -4.61,-3.895 -6.809,-3.895 -1.699,0 -1.801,0.203 -1.801,1.504 l 0,34.297 c 0,4.402 0.2,9.402 0.301,12.402 -0.199,0.403 -0.597,0.602 -1,0.602 -3.594,-1.899 -8.289,-3.403 -10.789,-4.199 -0.504,-0.301 -0.504,-1.704 0,-2 l 1,-0.602 c 2.996,-1.801 3.102,-2.398 3.102,-8.301 l 0,-45.191 z m 71.566,14.398 c 4.188,0 5.59,0.106 5.887,0.703 0.203,0.391 0.402,1.188 0.402,2.59 0,6 -5.59,11.899 -14.191,11.899 -12.004,0 -20.098,-10.297 -20.098,-22.598 0,-4.398 1.199,-9.102 4.192,-13.004 2.898,-3.797 7.996,-6.586 14.507,-6.586 5.2,0 12.391,2.492 15.692,9.289 -0.102,0.903 -0.801,1.504 -1.801,1.199 -3.09,-3.902 -5.891,-4.898 -9.191,-4.898 -10.707,0 -16.61,8.602 -16.61,18.707 0,2.5 0.102,2.699 2.699,2.699 l 18.512,0 z m -19.41,2.996 c -0.699,0 -0.699,0.297 -0.699,0.496 0.097,3.301 5.203,8.711 11.109,8.711 5.801,0 7.699,-3.511 7.699,-6.308 0,-1.305 -0.3,-1.699 -0.597,-1.899 -0.801,-0.601 -3,-1 -10.403,-1 l -7.109,0 z m 65.309,-13.605 c 0,-10.488 -0.2,-11.586 -5.5,-12.484 l -1.801,-0.305 c -0.594,-0.61 -0.399,-2.195 0.203,-2.5 3.699,0.105 7.098,0.289 11.492,0.289 4.199,0 9.098,-0.289 11.996,-0.289 18.012,0 26.602,7.789 26.602,19.39 0,10.715 -7.992,15.704 -13.387,16.7 -1.105,0.199 -1.906,0.504 -1.906,1.504 6,2.796 10.191,6.5 10.191,13.695 0,6.414 -3.301,10.41 -7.59,12.512 -4.5,2.289 -10.5,2.793 -16.808,2.793 -9.289,0 -16.09,-0.305 -21.492,-0.801 -0.801,-0.403 -0.899,-1.891 -0.098,-2.492 l 3.199,-0.301 c 4.504,-0.395 4.899,-2.301 4.899,-9.707 l 0,-38.004 z m 8.191,16.312 c 0,2 0.402,2.598 5.801,2.598 15.91,0 19.91,-9.207 19.91,-17.109 0,-10 -6.797,-13.996 -15.711,-13.996 -3,0 -6,0.496 -7.898,2.796 -1.899,2.204 -2.102,7.301 -2.102,10.903 l 0,14.808 z m 0,28.704 c 0,1.796 0.402,2.3 1.398,2.597 0.903,0.399 2.403,0.602 4.606,0.602 7.605,0 14.906,-3.703 14.906,-13.512 0,-9.398 -5.5,-12.398 -15.707,-12.797 -5.105,-0.203 -5.203,0 -5.203,2.797 l 0,20.313 z m 48.75,-48.805 c 0,-7.195 -0.102,-8.199 -3.797,-8.695 l -2.105,-0.305 c -0.7,-0.496 -0.496,-2.219 0.199,-2.52 2.805,0.203 5.801,0.325 9.39,0.325 3.5,0 6.403,-0.122 9.407,-0.325 0.699,0.301 0.898,2.024 0.199,2.52 l -2.106,0.305 c -3.597,0.496 -3.796,1.5 -3.796,8.695 l 0,18.004 c 0,4.097 0.199,8.894 0.398,12.398 -0.098,0.399 -0.496,0.598 -1,0.598 -2.301,-1.496 -7.988,-4.102 -10.289,-4.895 -0.496,-0.304 -0.496,-1.402 -0.102,-1.804 l 0.903,-0.598 c 2.699,-1.805 2.699,-2.301 2.699,-6.203 l 0,-17.5 z m 3.293,51.191 c -2.992,0 -5.391,-2.097 -5.391,-5.398 0,-2.692 1.996,-4.992 5.098,-4.992 2.793,0 5.293,1.601 5.293,5.191 0,2.797 -2,5.199 -5,5.199 m 19.617,-53.699 c 0,-5.203 -0.101,-7.102 -0.199,-8.504 0.199,-0.383 0.601,-0.586 1,-0.586 0.203,0 0.301,0 0.398,0.098 0.5,0.691 1.301,1.492 2.094,1.492 0.797,0 2.098,-0.602 4.199,-1.301 1.996,-0.59 4.801,-1.289 8.496,-1.289 13.414,0 23.004,9.289 23.004,22.59 0,11.008 -7.691,19.598 -19.101,19.598 -4.899,0 -8.903,-1.797 -11.5,-3.285 -0.602,0 -1,0.386 -1,2.089 l 0,18.895 c 0,4.402 0.199,8.902 0.398,12.402 -0.199,0.403 -0.601,0.602 -1,0.602 -3.801,-2 -8.59,-3.301 -10.89,-4.199 -0.497,-0.301 -0.497,-1.704 0,-2 l 1.003,-0.602 c 2.997,-1.801 3.098,-2.398 3.098,-8.301 l 0,-47.699 z m 7.391,20.512 c 0,3.894 0.199,5 1.199,5.699 1.402,0.898 3.801,1.602 6.801,1.602 9.91,0 15.211,-8.004 15.211,-18.313 0,-8.598 -3.7,-16.602 -13.11,-16.602 -3.203,0 -5.902,1.204 -7.601,3.301 -1.699,2.102 -2.5,5.199 -2.5,8.703 l 0,15.61 z m 50.566,29.285 c 0,4.402 0.2,9.402 0.3,12.402 -0.2,0.403 -0.6,0.602 -1,0.602 -3.6,-1.899 -8.29,-3.403 -10.79,-4.199 -0.5,-0.301 -0.5,-1.704 0,-2 l 1,-0.602 c 3,-1.801 3.1,-2.398 3.1,-8.301 l 0,-45.191 c 0,-7.195 -0.1,-8.199 -3.8,-8.695 l -2.3,-0.305 c -0.7,-0.496 -0.5,-2.219 0.2,-2.52 3,0.203 6,0.325 9.59,0.325 3.5,0 6.4,-0.122 9.7,-0.325 0.7,0.301 0.9,2.024 0.2,2.52 l -2.4,0.305 c -3.6,0.496 -3.8,1.5 -3.8,8.695 l 0,47.289 z m 19.8,-47.289 c 0,-7.195 -0.1,-8.199 -3.8,-8.695 l -2.1,-0.305 c -0.7,-0.496 -0.5,-2.219 0.2,-2.52 2.8,0.203 5.8,0.325 9.39,0.325 3.5,0 6.4,-0.122 9.4,-0.325 0.7,0.301 0.9,2.024 0.2,2.52 l -2.1,0.305 c -3.6,0.496 -3.8,1.5 -3.8,8.695 l 0,18.004 c 0,4.097 0.2,8.894 0.4,12.398 -0.1,0.399 -0.5,0.598 -1,0.598 -2.3,-1.496 -7.99,-4.102 -10.29,-4.895 -0.5,-0.304 -0.5,-1.402 -0.1,-1.804 l 0.9,-0.598 c 2.7,-1.805 2.7,-2.301 2.7,-6.203 l 0,-17.5 z m 3.29,51.191 c -2.99,0 -5.39,-2.097 -5.39,-5.398 0,-2.692 2,-4.992 5.09,-4.992 2.8,0 5.3,1.601 5.3,5.191 0,2.797 -2,5.199 -5,5.199 m 36.9,-21.601 c -11.8,0 -21.29,-8.989 -21.29,-21.598 0,-12.5 8.98,-20.59 20.49,-20.59 12.51,0 21.1,8.988 21.1,21.488 0,12.313 -9.09,20.7 -20.3,20.7 m 11.71,-22.301 c 0,-7.699 -2.7,-16.899 -11.52,-16.899 -8.79,0 -12.9,9.801 -12.9,18.903 0,11.012 4.91,17.308 11.51,17.308 9.51,0 12.91,-10.808 12.91,-19.312 m 40.64,16.711 c 0.9,0.601 1.1,3.289 -0.12,4.195 l -11.09,0 c -1.69,0 -1.8,0.098 -1.8,1.899 l 0,4.496 c -0.4,0.703 -1.59,0.703 -2.1,0.504 -0.99,-2.004 -2.9,-4.704 -4.18,-5.903 -1,-0.898 -3.5,-2.199 -6.4,-3.097 -0.4,-0.602 -0.3,-1.696 0.3,-2.094 l 2.79,0 c 2.01,0 2.1,-0.195 2.1,-2.895 l 0,-22.91 c 0,-6.004 1.8,-10.793 10.38,-10.793 5.12,0 8.72,2.492 10.52,4.59 0.2,0.602 -0.21,1.699 -1,1.699 -0.31,0 -1.61,-1.097 -2.5,-1.402 -0.8,-0.297 -1.71,-0.496 -2.7,-0.496 -6.6,0 -7.3,5.297 -7.3,11.097 l 0,18.711 c 0,2.102 0.09,2.399 1.79,2.399 l 11.31,0 z m 12.76,-24 c 0,-7.195 -0.1,-8.301 -3.8,-8.695 l -2.5,-0.305 c -0.71,-0.496 -0.5,-2.219 0.2,-2.52 3.2,0.203 6.19,0.325 9.79,0.325 3.48,0 6.39,-0.122 9.4,-0.325 0.7,0.301 0.9,2.121 0.2,2.52 l -2.1,0.305 c -3.62,0.496 -3.81,1.5 -3.81,8.695 l 0,16.801 c 0,3.504 0.3,4 2.11,5.5 1.8,1.504 4.4,2.699 7.8,2.699 6.4,0 9.51,-4.297 9.51,-10.699 l 0,-14.301 c 0,-7.195 -0.1,-8.102 -3.82,-8.695 l -1.99,-0.305 c -0.7,-0.496 -0.51,-2.219 0.2,-2.52 2.7,0.203 5.71,0.325 9.29,0.325 3.5,0 6.4,-0.122 9.99,-0.325 0.71,0.301 0.9,2.024 0.21,2.52 l -2.71,0.305 c -3.59,0.394 -3.79,1.5 -3.79,8.695 l 0,16.699 c 0,7.004 -3.39,12.891 -12.89,12.891 -5.1,0 -9.9,-2.399 -13.51,-5.192 -0.3,0.203 -0.4,1.004 -0.4,1.891 l 0,21 c 0,4.402 0.19,9.402 0.3,12.402 -0.2,0.403 -0.6,0.602 -0.99,0.602 -3.6,-1.899 -8.3,-3.403 -10.8,-4.199 -0.49,-0.301 -0.49,-1.704 0,-2 l 1.01,-0.602 c 3,-1.801 3.1,-2.398 3.1,-8.301 l 0,-45.191 z m 73.5,14.398 c 4.2,0 5.6,0.106 5.89,0.703 0.2,0.391 0.4,1.188 0.4,2.59 0,6 -5.59,11.899 -14.19,11.899 -12.01,0 -20.1,-10.297 -20.1,-22.598 0,-4.398 1.2,-9.102 4.19,-13.004 2.89,-3.797 8.01,-6.586 14.51,-6.586 5.2,0 12.4,2.492 15.69,9.289 -0.1,0.903 -0.79,1.504 -1.79,1.199 -3.1,-3.902 -5.9,-4.898 -9.2,-4.898 -10.7,0 -16.61,8.602 -16.61,18.707 0,2.5 0.1,2.699 2.71,2.699 l 18.5,0 z m -19.4,2.996 c -0.72,0 -0.72,0.297 -0.72,0.496 0.11,3.301 5.22,8.711 11.12,8.711 5.81,0 7.7,-3.511 7.7,-6.308 0,-1.305 -0.29,-1.699 -0.59,-1.899 -0.8,-0.601 -3.01,-1 -10.41,-1 l -7.1,0 z m 60.05,-2.996 c 4.2,0 5.59,0.106 5.88,0.703 0.21,0.391 0.41,1.188 0.41,2.59 0,6 -5.59,11.899 -14.19,11.899 -12.02,0 -20.09,-10.297 -20.09,-22.598 0,-4.398 1.19,-9.102 4.19,-13.004 2.89,-3.797 8,-6.586 14.5,-6.586 5.19,0 12.4,2.492 15.68,9.289 -0.09,0.903 -0.79,1.504 -1.78,1.199 -3.1,-3.902 -5.89,-4.898 -9.2,-4.898 -10.71,0 -16.61,8.602 -16.61,18.707 0,2.5 0.09,2.699 2.71,2.699 l 18.5,0 z m -19.41,2.996 c -0.7,0 -0.7,0.297 -0.7,0.496 0.1,3.301 5.2,8.711 11.11,8.711 5.79,0 7.71,-3.511 7.71,-6.308 0,-1.305 -0.31,-1.699 -0.6,-1.899 -0.8,-0.601 -3.02,-1 -10.41,-1 l -7.11,0 z m 37.08,-17.394 c 0,-7.195 -0.11,-8.199 -3.81,-8.695 l -2.19,-0.305 c -0.8,-0.496 -0.6,-2.219 0.09,-2.52 3.01,0.203 6.01,0.325 9.59,0.325 3.5,0 6.4,-0.122 9.7,-0.325 0.69,0.301 0.9,2.024 0.2,2.52 l -2.41,0.305 c -3.59,0.496 -3.79,1.5 -3.79,8.695 l 0,5.504 c 0,3.101 0.1,3.398 1.9,3.398 1.09,0 2.2,-0.402 3.1,-1.402 l 10.7,-12.399 c 1.3,-1.496 1.7,-2.199 1.7,-2.8 0,-0.602 -1,-0.801 -2.5,-0.996 l -1.8,-0.305 c -0.7,-0.399 -0.6,-2.11 0.2,-2.52 2.9,0.203 6.4,0.325 10.4,0.325 3.2,0 6.6,-0.122 9.5,-0.325 0.8,0.301 0.9,2.024 0.19,2.52 l -1.39,0.203 c -1.8,0.297 -3.8,0.898 -5.2,2.199 -2,1.903 -5.51,5.797 -9.4,10.203 -3.4,3.797 -5,5.696 -6.7,7.989 -0.6,0.8 -0.5,1.296 0.7,2.394 1.81,1.707 5.21,5.305 9.1,8.406 2.61,2.11 4.31,3.11 6.31,3.508 l 3.19,0.598 c 0.6,0.492 0.49,2.191 -0.2,2.488 -5.6,-0.586 -11.49,-0.785 -15.89,-0.785 l -2.29,0 c -0.9,-0.301 -0.9,-2.211 0,-2.52 l 2.39,-0.3 c 1.7,-0.203 2.2,-0.5 2.2,-1.004 0,-0.496 -0.71,-1.594 -3.5,-4.598 l -4.1,-4.398 c -2.71,-2.789 -4.6,-3.895 -6.8,-3.895 -1.71,0 -1.81,0.203 -1.81,1.504 l 0,34.297 c 0,4.402 0.2,9.402 0.3,12.402 -0.2,0.403 -0.6,0.602 -1,0.602 -3.59,-1.899 -8.28,-3.403 -10.78,-4.199 -0.5,-0.301 -0.5,-1.704 0,-2 l 1,-0.602 c 2.99,-1.801 3.1,-2.398 3.1,-8.301 l 0,-45.191" /><path
         id="path16"
         style="fill:#231f20;fill-opacity:1;fill-rule:nonzero;stroke:none"
         d="m 438.859,4.70703 0,71.17187 -10.793,0 0,-49.9805 -32.906,49.9805 -9.89,0 0,-71.17187 10.789,0 0,50.07817 32.91,-50.07817 9.89,0 z m 56.489,0 0,33.88677 c 0,11.5039 -6.989,17.4023 -20.899,17.4023 -8.398,0 -13.398,-1.6992 -18.187,-7.3047 l 6.687,-6.2891 c 2.797,3.5938 5.5,4.9024 11.098,4.9024 7.91,0 11.113,-3.1055 11.113,-9.5117 l 0,-3.6133 -13.41,0 c -11.602,0 -17.492,-6.0742 -17.492,-14.5899 0,-4.2968 1.402,-8.1836 4,-10.89839 3.09,-3.08594 7.289,-4.58985 13.594,-4.58985 6.308,0 9.808,1.50391 13.503,5.19532 l 0,-4.58985 9.993,0 z M 485.16,23.0078 c 0,-3.6133 -0.703,-6.0156 -2.199,-7.5 -2.703,-2.6172 -5.602,-2.9101 -9.512,-2.9101 -6.398,0 -9.297,2.5976 -9.297,7.1875 0,4.6093 3.098,7.3046 9.094,7.3046 l 11.914,0 0,-4.082 z m 48.66,-18.30077 0,8.67187 -4.199,0 c -3.801,0 -5.601,2.207 -5.601,5.918 l 0,27.4023 9.8,0 0,7.793 -9.8,0 0,15.3906 -10.192,0 0,-15.3906 -5.801,0 0,-7.793 5.801,0 0,-27.9101 c 0,-7.3047 4.399,-14.08207 13.891,-14.08207 l 6.101,0 z m 24.328,50.68357 -10.187,0 0,-50.68357 10.187,0 0,50.68357 z m 1.5,16.5039 c 0,3.5938 -2.996,6.6016 -6.601,6.6016 -3.59,0 -6.586,-3.0078 -6.586,-6.6016 0,-3.5937 2.996,-6.6015 6.586,-6.6015 3.605,0 6.601,3.0078 6.601,6.6015 m 56.02,-41.7968 c 0,8.4961 -1.199,14.9023 -6,19.9023 -3.289,3.3789 -8.289,5.9961 -15.199,5.9961 -6.899,0 -11.797,-2.6172 -15.098,-5.9961 -4.789,-5 -5.992,-11.4062 -5.992,-19.9023 0,-8.6133 1.203,-15 5.992,-20 3.301,-3.39848 8.199,-5.99614 15.098,-5.99614 6.91,0 11.91,2.59766 15.199,5.99614 4.801,5 6,11.3867 6,20 m -10.188,0 c 0,-5.5079 -0.402,-10.8008 -3.503,-13.9063 -1.899,-1.8945 -4.504,-3.0078 -7.508,-3.0078 -3,0 -5.5,1.1133 -7.399,3.0078 -3.101,3.1055 -3.5,8.3984 -3.5,13.9063 0,5.5078 0.399,10.8007 3.5,13.9062 1.899,1.8945 4.399,2.8906 7.399,2.8906 3.004,0 5.609,-0.9961 7.508,-2.8906 3.101,-3.1055 3.503,-8.3984 3.503,-13.9062 m 66.821,-25.39067 0,32.38277 c 0,5.7032 -1.203,10.5079 -5.102,14.2969 -2.988,2.9102 -7.293,4.6094 -12.5,4.6094 -5.097,0 -10,-1.9141 -13.504,-5.7031 l 0,5.0976 -9.984,0 0,-50.68357 10.187,0 0,30.87887 c 0,7.8125 4.797,11.3086 10.5,11.3086 5.711,0 10.211,-3.3984 10.211,-11.289 l 0,-30.89847 10.192,0 z m 54.707,0 0,33.88677 c 0,11.5039 -6.996,17.4023 -20.899,17.4023 -8.398,0 -13.398,-1.6992 -18.187,-7.3047 l 6.687,-6.2891 c 2.797,3.5938 5.5,4.9024 11.098,4.9024 7.91,0 11.109,-3.1055 11.109,-9.5117 l 0,-3.6133 -13.406,0 c -11.601,0 -17.492,-6.0742 -17.492,-14.5899 0,-4.2968 1.402,-8.1836 3.988,-10.89839 3.102,-3.08594 7.301,-4.58985 13.606,-4.58985 6.297,0 9.808,1.50391 13.504,5.19532 l 0,-4.58985 9.992,0 z M 716.816,23.0078 c 0,-3.6133 -0.699,-6.0156 -2.195,-7.5 -2.711,-2.6172 -5.613,-2.9101 -9.512,-2.9101 -6.398,0 -9.297,2.5976 -9.297,7.1875 0,4.6093 3.098,7.3046 9.094,7.3046 l 11.91,0 0,-4.082 z m 47.325,-18.30077 0,8.67187 -4.5,0 c -4.102,0 -5.5,2.0117 -5.5,5.918 l 0,56.582 -10.192,0 0,-57.1875 c 0,-7.5 4.289,-13.98437 13.887,-13.98437 l 6.305,0 z m 53.246,22.38277 0,4.4922 c 0,14.4141 -7.899,24.4141 -21.496,24.4141 -12.989,0 -21.481,-9.4922 -21.481,-25.8984 0,-19.3165 10.078,-25.99614 22.778,-25.99614 8.902,0 13.8,2.69532 19,7.89064 l -6.5,6.0937 c -3.598,-3.5937 -6.598,-5.1953 -12.301,-5.1953 -8.301,0 -12.899,5.4883 -12.899,14.1992 l 32.899,0 z m -10.094,7.0899 -22.805,0 c 0.102,3.1055 0.305,4.6094 1.305,6.9141 1.594,3.8085 5.297,6.4062 10.098,6.4062 4.797,0 8.398,-2.5977 10,-6.4062 1,-2.3047 1.297,-3.8086 1.402,-6.9141 m 91.098,-4.082 c 0,7.6953 -0.602,16.3085 -5.692,21.3867 -2.801,2.8125 -7.199,4.5117 -12.297,4.5117 -5.402,0 -9.609,-1.3086 -13.312,-5.7031 l 0,25.5859 -10.192,0 0,-71.17187 9.993,0 0,5.39067 c 3.797,-4.58989 7.91,-5.99614 13.406,-5.99614 5.105,0 9.601,1.69922 12.402,4.49219 5.09,5.09765 5.692,13.78905 5.692,21.50395 m -10.192,0 c 0,-9.0039 -1.301,-16.9141 -10.5,-16.9141 -9.211,0 -10.609,7.9102 -10.609,16.9141 0,9.0039 1.398,16.7968 10.609,16.7968 9.199,0 10.5,-7.7929 10.5,-16.7968 m 35.887,25.2929 -10.188,0 0,-50.68357 10.188,0 0,50.68357 z m 1.504,16.5039 c 0,3.5938 -3,6.6016 -6.59,6.6016 -3.598,0 -6.602,-3.0078 -6.602,-6.6016 0,-3.5937 3.004,-6.6015 6.602,-6.6015 3.59,0 6.59,3.0078 6.59,6.6015 m 57.512,-41.7968 c 0,7.6953 -0.602,16.3085 -5.696,21.3867 -2.797,2.8125 -7.195,4.5117 -12.297,4.5117 -5.402,0 -9.609,-1.3086 -13.312,-5.7031 l 0,25.5859 -10.192,0 0,-71.17187 9.993,0 0,5.39067 c 3.804,-4.58989 7.898,-5.99614 13.414,-5.99614 5.097,0 9.597,1.69922 12.394,4.49219 5.094,5.09765 5.696,13.78905 5.696,21.50395 m -10.192,0 c 0,-9.0039 -1.305,-16.9141 -10.504,-16.9141 -9.207,0 -10.609,7.9102 -10.609,16.9141 0,9.0039 1.402,16.7968 10.609,16.7968 9.199,0 10.504,-7.7929 10.504,-16.7968 m 45.76,-25.39067 0,8.67187 -4.5,0 c -4.1,0 -5.5,2.0117 -5.5,5.918 l 0,56.582 -10.193,0 0,-57.1875 c 0,-7.5 4.303,-13.98437 13.893,-13.98437 l 6.3,0 z m 23.35,50.68357 -10.18,0 0,-50.68357 10.18,0 0,50.68357 z m 1.51,16.5039 c 0,3.5938 -3.01,6.6016 -6.61,6.6016 -3.58,0 -6.59,-3.0078 -6.59,-6.6016 0,-3.5937 3.01,-6.6015 6.59,-6.6015 3.6,0 6.61,3.0078 6.61,6.6015 m 56.01,-41.7968 c 0,8.4961 -1.2,14.9023 -5.99,19.9023 -3.3,3.3789 -8.3,5.9961 -15.21,5.9961 -6.89,0 -11.8,-2.6172 -15.1,-5.9961 -4.78,-5 -5.98,-11.4062 -5.98,-19.9023 0,-8.6133 1.2,-15 5.98,-20 3.3,-3.39848 8.21,-5.99614 15.1,-5.99614 6.91,0 11.91,2.59766 15.21,5.99614 4.79,5 5.99,11.3867 5.99,20 m -10.18,0 c 0,-5.5079 -0.4,-10.8008 -3.51,-13.9063 -1.89,-1.8945 -4.49,-3.0078 -7.51,-3.0078 -3,0 -5.5,1.1133 -7.39,3.0078 -3.11,3.1055 -3.51,8.3984 -3.51,13.9063 0,5.5078 0.4,10.8007 3.51,13.9062 1.89,1.8945 4.39,2.8906 7.39,2.8906 3.02,0 5.62,-0.9961 7.51,-2.8906 3.11,-3.1055 3.51,-8.3984 3.51,-13.9062 m 46.85,-25.39067 0,8.67187 -4.2,0 c -3.8,0 -5.59,2.207 -5.59,5.918 l 0,27.4023 9.79,0 0,7.793 -9.79,0 0,15.3906 -10.2,0 0,-15.3906 -5.8,0 0,-7.793 5.8,0 0,-27.9101 c 0,-7.3047 4.4,-14.08207 13.9,-14.08207 l 6.09,0 z m 55.03,0 0,32.69527 c 0,10.9961 -6.3,18.5938 -17.6,18.5938 -5,0 -9.6,-1.9141 -13.09,-5.7031 l 0,25.5859 -10.2,0 0,-71.17187 10.2,0 0,31.09377 c 0,7.5976 4.6,11.0937 10.29,11.0937 5.71,0 10.21,-3.3984 10.21,-11.0937 l 0,-31.09377 10.19,0 z m 57.74,22.38277 0,4.4922 c 0,14.4141 -7.9,24.4141 -21.5,24.4141 -13,0 -21.48,-9.4922 -21.48,-25.8984 0,-19.3165 10.08,-25.99614 22.78,-25.99614 8.91,0 13.81,2.69532 19,7.89064 l -6.5,6.0937 c -3.59,-3.5937 -6.59,-5.1953 -12.3,-5.1953 -8.3,0 -12.9,5.4883 -12.9,14.1992 l 32.9,0 z m -10.09,7.0899 -22.81,0 c 0.1,3.1055 0.31,4.6094 1.3,6.9141 1.6,3.8085 5.31,6.4062 10.1,6.4062 4.81,0 8.4,-2.5977 10,-6.4062 1.01,-2.3047 1.3,-3.8086 1.41,-6.9141 m 66.19,-7.0899 0,4.4922 c 0,14.4141 -7.9,24.4141 -21.51,24.4141 -12.98,0 -21.48,-9.4922 -21.48,-25.8984 0,-19.3165 10.09,-25.99614 22.78,-25.99614 8.9,0 13.8,2.69532 19.01,7.89064 l -6.51,6.0937 c -3.6,-3.5937 -6.6,-5.1953 -12.29,-5.1953 -8.3,0 -12.9,5.4883 -12.9,14.1992 l 32.9,0 z m -10.11,7.0899 -22.79,0 c 0.1,3.1055 0.29,4.6094 1.3,6.9141 1.6,3.8085 5.29,6.4062 10.09,6.4062 4.8,0 8.4,-2.5977 10,-6.4062 1,-2.3047 1.3,-3.8086 1.4,-6.9141 m 69.71,-29.47267 -19.81,30.78127 17.6,19.9023 -12.39,0 -19.71,-23.3984 0,43.8867 -10.17,0 0,-71.17187 10.17,0 0,14.88277 7.5,8.4961 14.2,-23.37887 12.61,0 z m 74.5,50.68357 -10.8,0 -11.9,-35.6836 -12,35.6836 -10.8,0 18.61,-50.68357 8.3,0 18.59,50.68357 z m 49.31,-50.68357 0,33.88677 c 0,11.5039 -7,17.4023 -20.89,17.4023 -8.42,0 -13.42,-1.6992 -18.21,-7.3047 l 6.69,-6.2891 c 2.81,3.5938 5.5,4.9024 11.12,4.9024 7.9,0 11.09,-3.1055 11.09,-9.5117 l 0,-3.6133 -13.41,0 c -11.6,0 -17.49,-6.0742 -17.49,-14.5899 0,-4.2968 1.4,-8.1836 4.01,-10.89839 3.08,-3.08594 7.28,-4.58985 13.58,-4.58985 6.31,0 9.82,1.50391 13.52,5.19532 l 0,-4.58985 9.99,0 z m -10.2,18.30077 c 0,-3.6133 -0.69,-6.0156 -2.2,-7.5 -2.69,-2.6172 -5.59,-2.9101 -9.5,-2.9101 -6.4,0 -9.3,2.5976 -9.3,7.1875 0,4.6093 3.09,7.3046 9.11,7.3046 l 11.89,0 0,-4.082 z m 68.55,-18.30077 0,32.38277 c 0,5.7032 -1.21,10.5079 -5.09,14.2969 -3.01,2.9102 -7.31,4.6094 -12.5,4.6094 -5.12,0 -10.01,-1.9141 -13.52,-5.7031 l 0,5.0976 -9.99,0 0,-50.68357 10.2,0 0,30.87887 c 0,7.8125 4.79,11.3086 10.51,11.3086 5.7,0 10.19,-3.3984 10.19,-11.289 l 0,-30.89847 10.2,0 z m 96.49,0 0,71.17187 -10.79,0 0,-49.9805 -32.91,49.9805 -9.88,0 0,-71.17187 10.79,0 0,50.07817 32.91,-50.07817 9.88,0 z m 59.46,22.38277 0,4.4922 c 0,14.4141 -7.9,24.4141 -21.5,24.4141 -13,0 -21.49,-9.4922 -21.49,-25.8984 0,-19.3165 10.09,-25.99614 22.8,-25.99614 8.89,0 13.8,2.69532 18.99,7.89064 l -6.49,6.0937 c -3.61,-3.5937 -6.6,-5.1953 -12.31,-5.1953 -8.3,0 -12.9,5.4883 -12.9,14.1992 l 32.9,0 z m -10.09,7.0899 -22.81,0 c 0.1,3.1055 0.31,4.6094 1.3,6.9141 1.6,3.8085 5.3,6.4062 10.1,6.4062 4.8,0 8.41,-2.5977 10,-6.4062 1.01,-2.3047 1.31,-3.8086 1.41,-6.9141 m 64.79,-29.47267 0,71.17187 -10.19,0 0,-25.5859 c -3.7,4.3945 -7.91,5.7031 -13.31,5.7031 -5.09,0 -9.5,-1.6992 -12.3,-4.5117 -5.09,-5.0782 -5.68,-13.6914 -5.68,-21.3867 0,-7.7149 0.59,-16.4063 5.68,-21.50395 2.8,-2.79297 7.3,-4.49219 12.4,-4.49219 5.5,0 9.61,1.40625 13.41,5.99614 l 0,-5.39067 9.99,0 z M 1747.3,30.0977 c 0,-9.0039 -1.29,-16.9141 -10.5,-16.9141 -9.2,0 -10.61,7.9102 -10.61,16.9141 0,9.0039 1.41,16.7968 10.61,16.7968 9.21,0 10.5,-7.7929 10.5,-16.7968 m 68.47,-3.0079 0,4.4922 c 0,14.4141 -7.9,24.4141 -21.49,24.4141 -13,0 -21.49,-9.4922 -21.49,-25.8984 0,-19.3165 10.08,-25.99614 22.79,-25.99614 8.89,0 13.8,2.69532 18.99,7.89064 l -6.49,6.0937 c -3.61,-3.5937 -6.61,-5.1953 -12.31,-5.1953 -8.3,0 -12.9,5.4883 -12.9,14.1992 l 32.9,0 z m -10.1,7.0899 -22.8,0 c 0.1,3.1055 0.3,4.6094 1.3,6.9141 1.6,3.8085 5.3,6.4062 10.11,6.4062 4.79,0 8.4,-2.5977 10,-6.4062 0.99,-2.3047 1.3,-3.8086 1.39,-6.9141 m 60.8,17.0117 c -3.5,3.4961 -7.19,4.8047 -12.09,4.8047 -5.71,0 -10.9,-2.5 -13.51,-6.0938 l 0,5.4883 -9.97,0 0,-50.68357 10.17,0 0,30.78127 c 0,7.0117 4.6,11.4062 10.1,11.4062 3.51,0 5.3,-1.0937 7.6,-3.3984 l 7.7,7.6953 z m 31.8,-46.48437 0,8.67187 -4.5,0 c -4.09,0 -5.5,2.0117 -5.5,5.918 l 0,56.582 -10.17,0 0,-57.1875 c 0,-7.5 4.28,-13.98437 13.87,-13.98437 l 6.3,0 z m 51.95,0 0,33.88677 c 0,11.5039 -6.99,17.4023 -20.88,17.4023 -8.41,0 -13.4,-1.6992 -18.21,-7.3047 l 6.69,-6.2891 c 2.81,3.5938 5.5,4.9024 11.12,4.9024 7.9,0 11.09,-3.1055 11.09,-9.5117 l 0,-3.6133 -13.4,0 c -11.6,0 -17.5,-6.0742 -17.5,-14.5899 0,-4.2968 1.41,-8.1836 4,-10.89839 3.1,-3.08594 7.29,-4.58985 13.61,-4.58985 6.3,0 9.79,1.50391 13.49,5.19532 l 0,-4.58985 9.99,0 z m -10.19,18.30077 c 0,-3.6133 -0.69,-6.0156 -2.2,-7.5 -2.69,-2.6172 -5.59,-2.9101 -9.5,-2.9101 -6.41,0 -9.31,2.5976 -9.31,7.1875 0,4.6093 3.1,7.3046 9.11,7.3046 l 11.9,0 0,-4.082 z m 68.54,-18.30077 0,32.38277 c 0,5.7032 -1.2,10.5079 -5.08,14.2969 -3,2.9102 -7.31,4.6094 -12.5,4.6094 -5.11,0 -10.01,-1.9141 -13.52,-5.7031 l 0,5.0976 -9.99,0 0,-50.68357 10.2,0 0,30.87887 c 0,7.8125 4.79,11.3086 10.5,11.3086 5.71,0 10.2,-3.3984 10.2,-11.289 l 0,-30.89847 10.19,0 z m 56.77,0 0,71.17187 -10.18,0 0,-25.5859 c -3.7,4.3945 -7.9,5.7031 -13.3,5.7031 -5.11,0 -9.52,-1.6992 -12.31,-4.5117 -5.1,-5.0782 -5.69,-13.6914 -5.69,-21.3867 0,-7.7149 0.59,-16.4063 5.69,-21.50395 2.79,-2.79297 7.3,-4.49219 12.4,-4.49219 5.5,0 9.6,1.40625 13.4,5.99614 l 0,-5.39067 9.99,0 z m -10.18,25.39067 c 0,-9.0039 -1.3,-16.9141 -10.5,-16.9141 -9.22,0 -10.62,7.9102 -10.62,16.9141 0,9.0039 1.4,16.7968 10.62,16.7968 9.2,0 10.5,-7.7929 10.5,-16.7968" /><path
         id="path18"
         style="fill:#daac06;fill-opacity:1;fill-rule:nonzero;stroke:none"
         d="m 27.6406,197.168 c 12.2735,0 20.0508,1.367 21.5313,1.367 1.4765,0 2.25,-0.039 2.7265,-0.527 0.4024,-0.399 0.4844,-0.973 -0.2187,-1.754 -0.707,-0.774 -4.9766,-3.906 -7.9766,-10.715 -4.1523,-9.391 -3.7695,-12.883 -3.7695,-69.773 0,-21.309 0.0195,-52.1137 0.0195,-72.5433 0,-23.0274 3.8281,-28.711 5.6172,-31.9336 1.9414,-3.4766 6.1914,-6.34769 7.4219,-7.57816 0.4219,-0.41016 0.6797,-0.625 0.6797,-1.44532 0,-0.68359 -0.5235,-1.17187 -1.25,-1.13281 -0.5821,0.03907 -18.6172,1.64063 -24.7813,1.64063 -13.3476,0 -25.17966,-1.71875 -26.26951,-1.71875 -0.597652,0 -1.3593712,0.39062 -1.3593712,1.15234 0,0.27344 -0.0820313,0.91797 0.8203122,1.62109 2.257809,1.77735 5.691409,4.51172 7.960939,8.04688 2.41793,3.7109 5.14843,8.3594 5.14843,31.4453 0,30.0977 0.4102,70.1287 0.3906,72.4567 0,2.711 -0.3906,37.86 -0.4101,56.211 -0.0196,16.219 -7.49221,21.383 -9.97268,24.059 -0.16797,0.187 -0.55469,0.742 -0.55469,1.199 0,0.992 1.28906,0.961 1.52735,0.961 3.42968,0 7.94922,-1.039 22.71872,-1.039" /><path
         id="path20"
         style="fill:#daac06;fill-opacity:1;fill-rule:nonzero;stroke:none"
         d="m 51.4258,114.551 c -0.5078,0.687 -0.586,1.344 -0.2578,1.652 10.082,9.512 23.75,24.598 40.6289,43.301 18.0901,20.027 29.2621,35.148 30.6211,36.516 0.648,0.64 1.172,1.363 2.719,1.363 1.562,0 7.34,0.058 14.293,0.277 5.191,0.172 13.148,0.66 15.25,0.66 2.078,0 2.402,-0.179 2.578,-0.707 0.262,-0.734 -0.379,-1.383 -0.68,-1.672 -1.137,-1.152 -31.508,-25.519 -36.578,-30.3 -2.059,-1.95 -40.2539,-35.469 -43.375,-39.918 -0.125,-0.192 -0.1445,-0.371 -0.1445,-0.457 0,-0.075 0.039,-0.204 0.1992,-0.485 3.2851,-5.679 38.5903,-52.0662 43.8083,-58.9412 26.02,-34.3359 33.512,-41.8554 37.75,-45.625 6.403,-5.7031 13.453,-7.5586 17.594,-8.0273 1.926,-0.2344 8.547,-0.5078 9.465,0.4297 0.519,0.5078 0.461,1.6797 0.461,1.8945 0,1.0352 0.14,96.2693 0.14,101.2613 0,4.981 -0.503,61.411 -0.503,66.59 0,5.071 -1.645,9.946 -3.036,12.578 -0.191,0.364 -0.648,1.301 -0.488,1.957 0.164,0.657 0.848,1.063 1.91,0.954 3.789,-0.391 10.157,-0.239 16.059,-0.239 5.765,0 10.828,0.43 12.949,0.43 4.359,0 30.688,0.648 38.063,0.648 5.449,0 29.015,0.371 39.988,-10.601 9.945,-9.949 13.265,-19.57 13.265,-33.949 0,-12.43 -6.199,-22.157 -11.957,-27.93 -4.769,-4.77 -11.82,-9.449 -17.566,-12.039 -4.215,-1.91 -7.453,-2.781 -7.394,-3.781 0.031,-0.536 1.539,-0.661 4.621,-1.219 7.621,-1.399 23.441,-4.078 35.418,-17.379 C 311.996,86.5039 319.699,76.7969 319.355,55 319.117,39.6289 310.68,21.9531 300.336,14.5117 288.297,5.85938 276.289,1.34766 255.137,0.273438 c -5.239,-0.2539068 -10.231,-0.46875 -11.938,0.019531 -0.582,0.175781 -1.543,0.566406 -1.543,3.496091 0,2.96875 -0.031,4.6875 -0.109,6.79684 -0.047,1.1719 0.781,1.9336 2.824,1.9336 1.348,0 21.289,-1.8359 35.859,12.7344 2.567,2.5586 12.446,12.9688 12.446,32.8125 0,7.168 -2.488,19.4336 -12.207,29.1602 -8.68,8.6757 -25.531,12.4023 -42.93,12.4023 -1.371,0 -1.891,0.1133 -2.383,0.6761 -0.437,0.507 -0.39,1.125 -0.39,2.425 0,4.09 0.113,6.231 0.113,8.141 0,1.074 0.047,1.77 0.391,2.219 0.257,0.371 0.82,0.66 1.257,0.699 5.641,0.465 10.973,1.535 14.059,2.27 11.984,2.882 27.805,14.609 27.805,34.921 0,12.282 -4.61,24.258 -18.094,30.555 -8.738,4.074 -16.77,4.57 -30.637,4.57 -8.703,0 -11.805,-0.132 -13.801,-0.152 -0.359,-0.012 -2.289,0.059 -3.148,-0.801 -0.793,-0.793 -0.762,-2.48 -0.762,-3.129 0,-4.371 -0.238,-62.578 -0.238,-66.32 0,-3.73 0.848,-106.97253 0.848,-110.80066 0,-0.89843 0.117,-2.1289 -0.582,-2.83203 -0.61,-0.625 -1.508,-0.60547 -2.395,-0.60547 -4.637,0 -19.043,0.25391 -23.984,0.11719 -4.91,-0.15625 -31.59,-0.703124 -36.493,-0.703124 -3.91,0 -6.687,0.292974 -10.535,1.328124 -3.273,0.85938 -6.312,3.125 -9.8,7.1875 C 125.348,13.3789 106.719,37.0898 88.0586,63.5156 83.168,70.4492 57.1016,106.984 51.4258,114.551" /></g></g></svg>